# xmcd
#
# Track frame offsets:
#	150
#	16380
#	31826
#	48696
#	60621
#	74847
#	88663
#	106882
#	120605
#	131637
#
# Disc length: 2024 seconds
#
# Revision: 1
# Processed by: cddbd v1.5PL3 Copyright (c) Steve Scherf et al.
# Submitted via: audiograbber 1.81.03
#
DISCID=8c07e60a
DTITLE=Emmylou Harris - Evangeline
DYEAR=1981
DGENRE=Country
TTITLE0=I Don't Have To Crawl
TTITLE1=How High The Moon
TTITLE2=Spanish Johnny (feat. Waylon Jennings)
TTITLE3=Bad Moon Rising
TTITLE4=Evangeline (feat. Dolly Parton and Linda Ronstadt)
TTITLE5=Hot Burrito No. 2
TTITLE6=Millworker
TTITLE7=Oh, Atlanta
TTITLE8=Mister Sandman (feat. Dolly Parton and Linda Ronstadt)
TTITLE9=Ashes By Now
EXTD=
EXTT0=
EXTT1=
EXTT2=
EXTT3=
EXTT4=
EXTT5=
EXTT6=
EXTT7=
EXTT8=
EXTT9=
PLAYORDER=
